<svg width="25" height="24" fill="none" xmlns="http://www.w3.org/2000/svg"><g fill="#7E74F1"><path fill-rule="evenodd" clip-rule="evenodd" d="M14.088 3.252c-.651-.332-1.533-.337-2.19-.006C9.605 4.737 7.18 6.159 5.102 7.585c-.309.25-.528.612-.525 1.04.004.424.228.782.535 1.028 2.068 1.245 4.493 2.667 6.736 4.3.65.332 1.533.337 2.19.006 2.357-1.639 3.327-2.113 6.795-4.34.31-.249.529-.612.525-1.039-.004-.425-.227-.783-.535-1.028-2.003-1.393-4.428-2.815-6.735-4.3zm-1.522 1.257c.233-.117.614-.116.849.003 2.01 1.173 3.95 2.595 6.409 4.078-1.974 1.36-3.914 2.783-6.455 4.105a1.058 1.058 0 01-.848-.003c-2.319-1.32-4.371-2.741-6.41-4.078C8.15 7.107 9.606 6.16 12.567 4.51z"/><path d="M21.89 12.103a.701.701 0 01-.232.98l-5.925 3.614c-.793.363-1.769.837-2.733.837-.964 0-1.94-.474-2.798-.837l-5.86-3.573a.701.701 0 01-.232-.98.738.738 0 011.003-.227l5.86 3.574c.527.322 1.277.621 2.027.62.75 0 1.435-.299 1.963-.62l5.924-3.615a.738.738 0 011.003.227z"/><path d="M21.89 15.662a.701.701 0 01-.232.98l-5.13 3.13c-1.588.759-2.31 1.228-3.56 1.228s-2.878-.943-3.56-1.227l-5.066-3.09a.701.701 0 01-.232-.98.738.738 0 011.003-.226l5.065 3.09c.75.457 1.753.863 2.79.863 1.036 0 2.039-.406 2.788-.864l5.131-3.13a.738.738 0 011.003.226z"/></g></svg>